<svg width="133" height="50" viewBox="0 0 133 50" fill="none" xmlns="http://www.w3.org/2000/svg">
<path d="M21.008 9.832C22.1813 9.832 23.2107 10.0613 24.096 10.52C24.992 10.9787 25.68 11.6347 26.16 12.488C26.6507 13.3307 26.896 14.312 26.896 15.432C26.896 16.552 26.6507 17.5333 26.16 18.376C25.68 19.208 24.992 19.8533 24.096 20.312C23.2107 20.7707 22.1813 21 21.008 21H17.104V9.832H21.008ZM20.928 19.096C22.1013 19.096 23.008 18.776 23.648 18.136C24.288 17.496 24.608 16.5947 24.608 15.432C24.608 14.2693 24.288 13.3627 23.648 12.712C23.008 12.0507 22.1013 11.72 20.928 11.72H19.344V19.096H20.928ZM36.8128 16.376C36.8128 16.696 36.7914 16.984 36.7488 17.24H30.2688C30.3221 17.88 30.5461 18.3813 30.9408 18.744C31.3354 19.1067 31.8208 19.288 32.3968 19.288C33.2288 19.288 33.8208 18.9307 34.1728 18.216H36.5888C36.3328 19.0693 35.8421 19.7733 35.1168 20.328C34.3914 20.872 33.5008 21.144 32.4448 21.144C31.5914 21.144 30.8234 20.9573 30.1408 20.584C29.4688 20.2 28.9408 19.6613 28.5568 18.968C28.1834 18.2747 27.9967 17.4747 27.9967 16.568C27.9967 15.6507 28.1834 14.8453 28.5568 14.152C28.9301 13.4587 29.4528 12.9253 30.1248 12.552C30.7968 12.1787 31.5701 11.992 32.4448 11.992C33.2874 11.992 34.0394 12.1733 34.7008 12.536C35.3728 12.8987 35.8901 13.416 36.2528 14.088C36.6261 14.7493 36.8128 15.512 36.8128 16.376ZM34.4928 15.736C34.4821 15.16 34.2741 14.7013 33.8688 14.36C33.4634 14.008 32.9674 13.832 32.3808 13.832C31.8261 13.832 31.3568 14.0027 30.9728 14.344C30.5994 14.6747 30.3701 15.1387 30.2848 15.736H34.4928ZM42.1438 18.936L44.3838 12.136H46.7678L43.4878 21H40.7678L37.5038 12.136H39.9038L42.1438 18.936ZM58.0259 21.64V23.768H48.6339V21.64H58.0259Z" fill="white"/>
<path d="M55.88 31.192C55.624 30.7227 55.272 30.3653 54.824 30.12C54.376 29.8747 53.8533 29.752 53.256 29.752C52.5947 29.752 52.008 29.9013 51.496 30.2C50.984 30.4987 50.584 30.9253 50.296 31.48C50.008 32.0347 49.864 32.6747 49.864 33.4C49.864 34.1467 50.008 34.7973 50.296 35.352C50.5947 35.9067 51.0053 36.3333 51.528 36.632C52.0507 36.9307 52.6587 37.08 53.352 37.08C54.2053 37.08 54.904 36.856 55.448 36.408C55.992 35.9493 56.3493 35.3147 56.52 34.504H52.68V32.792H58.728V34.744C58.5787 35.5227 58.2587 36.2427 57.768 36.904C57.2773 37.5653 56.6427 38.0987 55.864 38.504C55.096 38.8987 54.232 39.096 53.272 39.096C52.1947 39.096 51.2187 38.856 50.344 38.376C49.48 37.8853 48.7973 37.208 48.296 36.344C47.8053 35.48 47.56 34.4987 47.56 33.4C47.56 32.3013 47.8053 31.32 48.296 30.456C48.7973 29.5813 49.48 28.904 50.344 28.424C51.2187 27.9333 52.1893 27.688 53.256 27.688C54.5147 27.688 55.608 27.9973 56.536 28.616C57.464 29.224 58.104 30.0827 58.456 31.192H55.88ZM59.8092 34.536C59.8092 33.64 59.9852 32.8453 60.3372 32.152C60.6999 31.4587 61.1853 30.9253 61.7933 30.552C62.4119 30.1787 63.0999 29.992 63.8573 29.992C64.5186 29.992 65.0946 30.1253 65.5853 30.392C66.0866 30.6587 66.4866 30.9947 66.7853 31.4V30.136H69.0413V39H66.7853V37.704C66.4973 38.12 66.0973 38.4667 65.5853 38.744C65.0839 39.0107 64.5026 39.144 63.8413 39.144C63.0946 39.144 62.4119 38.952 61.7933 38.568C61.1853 38.184 60.6999 37.6453 60.3372 36.952C59.9852 36.248 59.8092 35.4427 59.8092 34.536ZM66.7853 34.568C66.7853 34.024 66.6786 33.56 66.4653 33.176C66.2519 32.7813 65.9639 32.4827 65.6013 32.28C65.2386 32.0667 64.8493 31.96 64.4333 31.96C64.0173 31.96 63.6333 32.0613 63.2812 32.264C62.9293 32.4667 62.6413 32.7653 62.4173 33.16C62.2039 33.544 62.0973 34.0027 62.0973 34.536C62.0973 35.0693 62.2039 35.5387 62.4173 35.944C62.6413 36.3387 62.9293 36.6427 63.2812 36.856C63.6439 37.0693 64.0279 37.176 64.4333 37.176C64.8493 37.176 65.2386 37.0747 65.6013 36.872C65.9639 36.6587 66.2519 36.36 66.4653 35.976C66.6786 35.5813 66.7853 35.112 66.7853 34.568ZM73.469 31.432C73.757 31.0053 74.1517 30.6587 74.653 30.392C75.165 30.1253 75.7463 29.992 76.397 29.992C77.1543 29.992 77.837 30.1787 78.445 30.552C79.0637 30.9253 79.549 31.4587 79.901 32.152C80.2637 32.8347 80.445 33.6293 80.445 34.536C80.445 35.4427 80.2637 36.248 79.901 36.952C79.549 37.6453 79.0637 38.184 78.445 38.568C77.837 38.952 77.1543 39.144 76.397 39.144C75.7357 39.144 75.1543 39.016 74.653 38.76C74.1623 38.4933 73.7677 38.152 73.469 37.736V39H71.229V27.16H73.469V31.432ZM78.157 34.536C78.157 34.0027 78.045 33.544 77.821 33.16C77.6077 32.7653 77.3197 32.4667 76.957 32.264C76.605 32.0613 76.221 31.96 75.805 31.96C75.3997 31.96 75.0157 32.0667 74.653 32.28C74.301 32.4827 74.013 32.7813 73.789 33.176C73.5757 33.5707 73.469 34.0347 73.469 34.568C73.469 35.1013 73.5757 35.5653 73.789 35.96C74.013 36.3547 74.301 36.6587 74.653 36.872C75.0157 37.0747 75.3997 37.176 75.805 37.176C76.221 37.176 76.605 37.0693 76.957 36.856C77.3197 36.6427 77.6077 36.3387 77.821 35.944C78.045 35.5493 78.157 35.08 78.157 34.536ZM89.6728 27.832V29.64H86.6968V39H84.4568V29.64H81.4808V27.832H89.6728ZM99.5471 34.376C99.5471 34.696 99.5258 34.984 99.4831 35.24H93.0031C93.0565 35.88 93.2805 36.3813 93.6751 36.744C94.0698 37.1067 94.5551 37.288 95.1311 37.288C95.9631 37.288 96.5551 36.9307 96.9071 36.216H99.3231C99.0671 37.0693 98.5765 37.7733 97.8511 38.328C97.1258 38.872 96.2351 39.144 95.1791 39.144C94.3258 39.144 93.5578 38.9573 92.8751 38.584C92.2031 38.2 91.6751 37.6613 91.2911 36.968C90.9178 36.2747 90.7311 35.4747 90.7311 34.568C90.7311 33.6507 90.9178 32.8453 91.2911 32.152C91.6645 31.4587 92.1871 30.9253 92.8591 30.552C93.5311 30.1787 94.3045 29.992 95.1791 29.992C96.0218 29.992 96.7738 30.1733 97.4351 30.536C98.1071 30.8987 98.6245 31.416 98.9871 32.088C99.3605 32.7493 99.5471 33.512 99.5471 34.376ZM97.2271 33.736C97.2165 33.16 97.0085 32.7013 96.6031 32.36C96.1978 32.008 95.7018 31.832 95.1151 31.832C94.5605 31.832 94.0911 32.0027 93.7071 32.344C93.3338 32.6747 93.1045 33.1387 93.0191 33.736H97.2271ZM106.43 39L103.422 35.224V39H101.182V27.16H103.422V33.896L106.398 30.136H109.31L105.406 34.584L109.342 39H106.43ZM111.662 29.08C111.267 29.08 110.937 28.9573 110.67 28.712C110.414 28.456 110.286 28.1413 110.286 27.768C110.286 27.3947 110.414 27.0853 110.67 26.84C110.937 26.584 111.267 26.456 111.662 26.456C112.057 26.456 112.382 26.584 112.638 26.84C112.905 27.0853 113.038 27.3947 113.038 27.768C113.038 28.1413 112.905 28.456 112.638 28.712C112.382 28.9573 112.057 29.08 111.662 29.08ZM112.766 30.136V39H110.526V30.136H112.766Z" fill="white"/>
<path d="M18.8614 3.66861C19.0628 3.46906 19.2225 3.23215 19.3315 2.97142C19.4404 2.71069 19.4965 2.43124 19.4965 2.14902C19.4965 1.86681 19.4404 1.58736 19.3315 1.32663C19.2225 1.06589 19.0628 0.828989 18.8614 0.629434C18.6601 0.429879 18.4211 0.271582 18.158 0.163583C17.8949 0.0555847 17.613 -2.10266e-09 17.3282 0C17.0435 2.10266e-09 16.7615 0.0555847 16.4985 0.163583C16.2354 0.271582 15.9964 0.429879 15.795 0.629434L0.636211 15.6536C0.434541 15.853 0.274538 16.0898 0.165367 16.3506C0.0561953 16.6114 0 16.8909 0 17.1732C0 17.4555 0.0561953 17.7351 0.165367 17.9958C0.274538 18.2566 0.434541 18.4934 0.636211 18.6928L15.795 33.717C16.2017 34.12 16.7532 34.3464 17.3282 34.3464C17.9033 34.3464 18.4548 34.12 18.8614 33.717C19.2681 33.314 19.4965 32.7673 19.4965 32.1974C19.4965 31.6274 19.2681 31.0808 18.8614 30.6778L5.2315 17.1732L18.8614 3.66861ZM114.139 19.3222C113.732 18.9192 113.503 18.3725 113.503 17.8026C113.503 17.2326 113.732 16.686 114.139 16.283C114.545 15.88 115.097 15.6536 115.672 15.6536C116.247 15.6536 116.798 15.88 117.205 16.283L132.364 31.3072C132.565 31.5066 132.725 31.7434 132.835 32.0042C132.944 32.2649 133 32.5445 133 32.8268C133 33.1091 132.944 33.3886 132.835 33.6494C132.725 33.9102 132.565 34.147 132.364 34.3464L117.205 49.3706C116.798 49.7736 116.247 50 115.672 50C115.097 50 114.545 49.7736 114.139 49.3706C113.732 48.9675 113.503 48.4209 113.503 47.851C113.503 47.281 113.732 46.7344 114.139 46.3314L127.768 32.8268L114.139 19.3222Z" fill="url(#paint0_linear_1_9)"/>
<defs>
<linearGradient id="paint0_linear_1_9" x1="67" y1="13" x2="62.5" y2="59" gradientUnits="userSpaceOnUse">
<stop stop-color="#AF05FF"/>
<stop offset="1" stop-color="#2D42FF"/>
</linearGradient>
</defs>
</svg>
